<svg xmlns="http://www.w3.org/2000/svg" viewBox="0 0 900 200" font-family="-apple-system, 'PingFang SC', 'Microsoft YaHei', sans-serif">
  <defs>
    <marker id="a" viewBox="0 0 10 10" refX="9" refY="5" markerWidth="7" markerHeight="7" orient="auto-start-reverse"><path d="M0 0 L10 5 L0 10 z" fill="#9BB4D4"/></marker>
    <style>
      .chip{fill:#EAF1FA;stroke:#064FA1;stroke-width:2;rx:12}
      .step{fill:#fff;stroke:#C9D8EC;stroke-width:2;rx:12}
      .op{font:600 30px ui-monospace, Menlo, Consolas, monospace;fill:#064FA1}
      .t{font:22px sans-serif;fill:#1a1a1a}
      .m{font:20px ui-monospace, Menlo, Consolas, monospace;fill:#555}
      .lead{font:600 22px sans-serif;fill:#8A2B2F}
      .h{font:600 26px sans-serif;fill:#064FA1}
      .arr{stroke:#9BB4D4;stroke-width:3;marker-end:url(#a)}
    </style>
  </defs>
  <text class="op" x="10" y="42">TCON</text>
  <text class="m" x="130" y="42">0x88 · 可位寻址</text>
  <rect class="step" x="10" y="60" width="106" height="58"/>
  <text class="op" x="63" y="99" text-anchor="middle" style="font-size:24px">TF1</text>
  <text class="m" x="63" y="140" text-anchor="middle" style="font-size:18px;fill:#888">D7</text>
  <rect class="step" x="121" y="60" width="106" height="58"/>
  <text class="op" x="173" y="99" text-anchor="middle" style="font-size:24px">TR1</text>
  <text class="m" x="173" y="140" text-anchor="middle" style="font-size:18px;fill:#888">D6</text>
  <rect class="step" x="231" y="60" width="106" height="58"/>
  <text class="op" x="284" y="99" text-anchor="middle" style="font-size:24px">TF0</text>
  <text class="m" x="284" y="140" text-anchor="middle" style="font-size:18px;fill:#888">D5</text>
  <rect class="step" x="342" y="60" width="106" height="58"/>
  <text class="op" x="395" y="99" text-anchor="middle" style="font-size:24px">TR0</text>
  <text class="m" x="395" y="140" text-anchor="middle" style="font-size:18px;fill:#888">D4</text>
  <rect class="step" x="453" y="60" width="106" height="58"/>
  <text class="op" x="505" y="99" text-anchor="middle" style="font-size:24px">IE1</text>
  <text class="m" x="505" y="140" text-anchor="middle" style="font-size:18px;fill:#888">D3</text>
  <rect class="step" x="563" y="60" width="106" height="58"/>
  <text class="op" x="616" y="99" text-anchor="middle" style="font-size:24px">IT1</text>
  <text class="m" x="616" y="140" text-anchor="middle" style="font-size:18px;fill:#888">D2</text>
  <rect class="step" x="674" y="60" width="106" height="58"/>
  <text class="op" x="727" y="99" text-anchor="middle" style="font-size:24px">IE0</text>
  <text class="m" x="727" y="140" text-anchor="middle" style="font-size:18px;fill:#888">D1</text>
  <rect class="chip" x="784" y="60" width="106" height="58"/>
  <text class="op" x="837" y="99" text-anchor="middle" style="font-size:24px">IT0</text>
  <text class="m" x="837" y="140" text-anchor="middle" style="font-size:18px;fill:#888">D0</text>
  <text class="lead" x="10" y="182">本节只用 IT0：置 1 = 下降沿触发外部中断 0</text>
</svg>
